<svg height="512" viewBox="0 0 64 64" width="512" xmlns="http://www.w3.org/2000/svg"><g id="Certificate-5" data-name="Certificate"><g fill="#9bc9ff"><path d="m49 40-8 8-8-8a11.993 11.993 0 0 0 -12 12v4h40v-4a12 12 0 0 0 -12-12z"/><path d="m57 35h4l-2-8z"/><path d="m27 21.97a14.909 14.909 0 0 0 2 .98 32.456 32.456 0 0 0 12 2.05 32.456 32.456 0 0 0 12-2.05 14.909 14.909 0 0 0 2-.98v-8.22l-14 5.25-14-5.25z"/><path d="m11 45v-42h-4a4 4 0 0 0 -4 4v46a7.989 7.989 0 0 1 8-8z"/></g><path d="m49 39h-1.1a12.989 12.989 0 0 0 6.1-11v-4.4a15.643 15.643 0 0 0 1.51-.767 1 1 0 0 0 .49-.863v-7.527l1.182-.443h.818v8.184a2.986 2.986 0 0 0 -.215 5.553l-1.755 7.02a1 1 0 0 0 .97 1.243h4a1 1 0 0 0 .97-1.243l-1.755-7.02a2.986 2.986 0 0 0 -.215-5.553v-9.184a1 1 0 0 0 -1-1h-1.818l-9.182-3.443v-5.557a1 1 0 0 0 -1-1h-40a5.006 5.006 0 0 0 -5 5v46a9.011 9.011 0 0 0 9 9h36a1 1 0 0 0 1-1v-4h13a1 1 0 0 0 1-1v-4a13.015 13.015 0 0 0 -13-13zm-2.414 2-5.586 5.586-5.586-5.586zm-5.586-2a11.013 11.013 0 0 1 -11-11v-3.613a35.362 35.362 0 0 0 11 1.613 35.37 35.37 0 0 0 11-1.612v3.612a11.013 11.013 0 0 1 -11 11zm13-17.615a15.064 15.064 0 0 1 -1.382.641 31.421 31.421 0 0 1 -11.618 1.974 31.413 31.413 0 0 1 -11.624-1.977 14.776 14.776 0 0 1 -1.376-.638v-6.192l12.649 4.744a1.009 1.009 0 0 0 .7 0l12.651-4.744zm5 2.615a1 1 0 1 1 -1 1 1 1 0 0 1 1-1zm-.719 10 .719-2.877.719 2.877zm-6.8-20-10.481 3.932-13.152-4.932 13.152-4.932 10.485 3.932h-10.485v2zm-39.481-10h34v3.807l-4.649-1.744a1.009 1.009 0 0 0 -.7 0l-16 6a1 1 0 0 0 0 1.874l1.349.506v7.527a1 1 0 0 0 .49.861 15.423 15.423 0 0 0 1.51.769v4.4a12.989 12.989 0 0 0 6.1 11h-1.1a12.972 12.972 0 0 0 -10.226 5h-10.774zm-8 3a3 3 0 0 1 3-3h3v40.06a8.981 8.981 0 0 0 -5.37 2.575 9.308 9.308 0 0 0 -.63.707zm42 53h-35a7 7 0 1 1 0-14h10.479a12.9 12.9 0 0 0 -1.479 6v4a1 1 0 0 0 1 1h25zm14-5h-38v-3a11.005 11.005 0 0 1 10.606-10.98l5.98 5.98h-12.586v2h30v-2h-12.586l5.98-5.98a11.005 11.005 0 0 1 10.606 10.98z" fill="#57a4ff"/><path d="m8 52h9v2h-9z" fill="#57a4ff"/><path d="m16 40v-32h13v-2h-14a1 1 0 0 0 -1 1v34a1 1 0 0 0 1 1h6v-2z" fill="#57a4ff"/></g></svg>